<svg width="672" height="176" viewBox="0 0 672 176" fill="none" xmlns="http://www.w3.org/2000/svg">
<path d="M200.992 97.9803V2.57198H225.487V128.967H203.441L201.237 115.617C189.153 125.823 175.803 130.926 161.187 130.926C145.674 130.926 134.692 126.64 128.242 118.066C121.546 109.33 118.199 94.2653 118.199 72.8729V2.57198H142.694V71.6481C142.694 86.7534 144.857 97.0414 149.185 102.512C153.022 107.411 160.33 109.86 171.108 109.86C181.967 109.86 191.929 105.9 200.992 97.9803Z" fill="white"/>
<path d="M309.456 21.6782C297.29 21.6782 286.472 25.8015 277 34.0482V128.967H252.505V2.57198H275.163L276.878 16.2892C290.187 5.838 303.945 0.612377 318.152 0.612377C333.176 0.612377 344.198 5.10314 351.22 14.0847C358.569 23.5561 362.243 38.8247 362.243 59.8905V128.967H337.748V59.8905C337.748 39.6412 332.277 27.557 321.336 23.6378C317.825 22.3314 313.865 21.6782 309.456 21.6782Z" fill="white"/>
<path d="M449.225 65.5244C449.225 45.6833 455.553 29.5982 468.209 17.269C480.048 5.75634 494.704 0 512.178 0C529.324 0 543.654 5.75634 555.166 17.269C567.414 29.5166 573.538 45.6017 573.538 65.5244C573.538 85.3654 567.373 101.369 555.044 113.535C543.368 125.129 529.038 130.926 512.055 130.926C494.827 130.926 480.212 125.129 468.209 113.535C455.553 101.369 449.225 85.3654 449.225 65.5244ZM474.7 65.5244C474.7 86.4268 481.395 100.634 494.786 108.146C499.522 110.759 505.197 112.065 511.81 112.065C518.424 112.065 524.017 110.759 528.589 108.146C533.162 105.451 536.918 101.94 539.857 97.6129C545.328 89.2846 548.063 78.5884 548.063 65.5244C548.063 44.7852 541.49 30.578 528.344 22.9029C523.772 20.2084 518.301 18.8612 511.933 18.8612C505.564 18.8612 500.012 20.2084 495.276 22.9029C490.622 25.5157 486.784 28.9859 483.763 33.3133C477.721 41.8049 474.7 52.542 474.7 65.5244Z" fill="white"/>
<path d="M671.469 24.985C666.978 23.6786 661.589 23.0254 655.302 23.0254C649.097 23.0254 643.994 23.6786 639.993 24.985C635.992 26.2097 632.481 27.7203 629.46 29.5166C623.908 32.7826 619.866 36.4569 617.335 40.5394V128.967H592.84V2.57198H616.355L617.335 20.086C623.459 12.4108 632.399 6.6545 644.157 2.81693C648.403 1.34723 653.261 0.612377 658.732 0.612377C664.202 0.612377 668.448 1.02063 671.469 1.83713V24.985Z" fill="white"/>
<path d="M14.3296 175.341C10.9003 175.341 6.12377 175.137 0 174.728V151.091C3.26601 152.07 9.14485 152.56 17.6365 152.56C26.2098 152.56 33.395 151.376 39.1921 149.009C45.071 146.641 49.97 142.885 53.8892 137.741C61.8093 127.371 65.7693 110.755 65.7693 87.8933V25.3083H2.93942V3.63017H90.2644V87.8933C90.2644 132.148 76.343 159.501 48.5003 169.952C38.9472 173.544 27.557 175.341 14.3296 175.341Z" fill="white"/>
<path d="M395.992 3.55179H421.076V128.967H395.992V3.55179Z" fill="white"/>
</svg>
