<svg width="236" height="181" viewBox="0 0 236 181" fill="none" xmlns="http://www.w3.org/2000/svg">
<path fill-rule="evenodd" clip-rule="evenodd" d="M135.449 0.216894C172.434 -2.39535 207.18 18.8537 222.96 49.6341C263.413 128.545 196.861 163.333 136.609 175.24C27.5137 196.799 -14.4117 141.942 4.31137 93.1404C24.6393 40.1559 94.8593 3.08371 135.449 0.216894ZM132.652 39.1763C125.375 39.1763 119.476 47.629 119.476 58.0559C119.476 68.4829 125.375 76.9358 132.652 76.9358C139.928 76.9357 145.827 68.4828 145.827 58.0559C145.827 47.629 139.928 39.1764 132.652 39.1763ZM177.546 39.1763C170.269 39.1763 164.37 47.629 164.37 58.0559C164.37 68.4829 170.269 76.9358 177.546 76.9358C184.822 76.9358 190.721 68.4829 190.721 58.0559C190.721 47.629 184.822 39.1763 177.546 39.1763Z" fill="black"/>
</svg>
