<svg width="983" height="181" viewBox="0 0 983 181" fill="none" xmlns="http://www.w3.org/2000/svg">
<path d="M512.339 102.64V7.23125H536.834V133.626H514.789L512.584 120.276C500.5 130.482 487.15 135.586 472.535 135.586C457.021 135.586 446.039 131.299 439.589 122.726C432.894 113.989 429.546 98.9245 429.546 77.5322V7.23125H454.041V76.3074C454.041 91.4127 456.205 101.701 460.532 107.171C464.37 112.07 471.677 114.52 482.455 114.52C493.315 114.52 503.276 110.56 512.339 102.64Z" fill="white"/>
<path d="M620.804 26.3374C608.638 26.3374 597.819 30.4608 588.348 38.7074V133.626H563.852V7.23125H586.51L588.225 20.9485C601.534 10.4973 615.292 5.27165 629.499 5.27165C644.523 5.27165 655.546 9.76241 662.568 18.7439C669.916 28.2154 673.59 43.484 673.59 64.5498V133.626H649.095V64.5498C649.095 44.3005 643.625 32.2162 632.684 28.297C629.173 26.9906 625.213 26.3374 620.804 26.3374Z" fill="white"/>
<path d="M760.572 70.1836C760.572 50.3426 766.9 34.2575 779.556 21.9283C791.395 10.4156 806.052 4.65927 823.525 4.65927C840.671 4.65927 855.001 10.4156 866.514 21.9283C878.761 34.1758 884.885 50.261 884.885 70.1836C884.885 90.0246 878.72 106.028 866.391 118.194C854.715 129.788 840.386 135.586 823.402 135.586C806.174 135.586 791.559 129.788 779.556 118.194C766.9 106.028 760.572 90.0246 760.572 70.1836ZM786.047 70.1836C786.047 91.0861 792.743 105.293 806.133 112.805C810.869 115.418 816.544 116.724 823.157 116.724C829.771 116.724 835.364 115.418 839.937 112.805C844.509 110.111 848.265 106.6 851.204 102.272C856.675 93.9439 859.41 83.2477 859.41 70.1836C859.41 49.4445 852.837 35.2373 839.692 27.5622C835.119 24.8677 829.649 23.5205 823.28 23.5205C816.911 23.5205 811.359 24.8677 806.623 27.5622C801.969 30.175 798.132 33.6451 795.111 37.9726C789.068 46.4642 786.047 57.2012 786.047 70.1836Z" fill="white"/>
<path d="M982.816 29.6443C978.326 28.3379 972.937 27.6847 966.65 27.6847C960.444 27.6847 955.341 28.3379 951.34 29.6443C947.339 30.869 943.828 32.3795 940.807 34.1758C935.255 37.4419 931.213 41.1161 928.682 45.1986V133.626H904.187V7.23125H927.702L928.682 24.7452C934.806 17.0701 943.747 11.3138 955.504 7.4762C959.75 6.0065 964.608 5.27165 970.079 5.27165C975.549 5.27165 979.795 5.6799 982.816 6.4964V29.6443Z" fill="white"/>
<path d="M325.677 180C322.248 180 317.471 179.796 311.347 179.388V155.75C314.613 156.73 320.492 157.22 328.984 157.22C337.557 157.22 344.742 156.036 350.539 153.668C356.418 151.3 361.317 147.544 365.236 142.4C373.157 132.03 377.117 115.415 377.117 92.5525V29.9676H314.287V8.28944H401.612V92.5525C401.612 136.807 387.69 164.16 359.848 174.611C350.294 178.204 338.904 180 325.677 180Z" fill="white"/>
<path d="M707.34 8.21106H732.423V133.626H707.34V8.21106Z" fill="white"/>
<path fill-rule="evenodd" clip-rule="evenodd" d="M135.449 0.216894C172.434 -2.39535 207.18 18.8537 222.96 49.6341C263.413 128.545 196.861 163.333 136.609 175.24C27.5137 196.799 -14.4117 141.942 4.31137 93.1404C24.6393 40.1559 94.8593 3.08371 135.449 0.216894ZM132.652 39.1763C125.375 39.1763 119.476 47.629 119.476 58.0559C119.476 68.4829 125.375 76.9358 132.652 76.9358C139.928 76.9357 145.827 68.4828 145.827 58.0559C145.827 47.629 139.928 39.1764 132.652 39.1763ZM177.546 39.1763C170.269 39.1763 164.37 47.629 164.37 58.0559C164.37 68.4829 170.269 76.9358 177.546 76.9358C184.822 76.9358 190.721 68.4829 190.721 58.0559C190.721 47.629 184.822 39.1763 177.546 39.1763Z" fill="white"/>
</svg>
